<svg viewBox="0 0 251 29" fill="none" xmlns="http://www.w3.org/2000/svg">
<path d="M0.792969 20.1914H4.79688V24.9961H16.125V0.992188H20.1289V24.9961C20.1289 25.543 20.0182 26.0638 19.7969 26.5586C19.5885 27.0404 19.3021 27.4635 18.9375 27.8281C18.5859 28.1927 18.1628 28.4792 17.668 28.6875C17.1862 28.8958 16.6719 29 16.125 29H4.79688C4.25 29 3.72917 28.8958 3.23438 28.6875C2.7526 28.4792 2.32943 28.1927 1.96484 27.8281C1.61328 27.4635 1.32682 27.0404 1.10547 26.5586C0.897135 26.0638 0.792969 25.543 0.792969 24.9961V20.1914ZM31.3398 17.0078C30.793 17.0078 30.2721 16.9036 29.7773 16.6953C29.2956 16.474 28.8724 16.1875 28.5078 15.8359C28.1432 15.4714 27.8568 15.0482 27.6484 14.5664C27.4401 14.0716 27.3359 13.5508 27.3359 13.0039V4.99609C27.3359 4.44922 27.4401 3.9349 27.6484 3.45312C27.8568 2.95833 28.1432 2.53516 28.5078 2.18359C28.8724 1.81901 29.2956 1.53255 29.7773 1.32422C30.2721 1.10286 30.793 0.992188 31.3398 0.992188H44.9336C45.4805 0.992188 45.9948 1.10286 46.4766 1.32422C46.9714 1.53255 47.401 1.81901 47.7656 2.18359C48.1302 2.53516 48.4167 2.95833 48.625 3.45312C48.8333 3.9349 48.9375 4.44922 48.9375 4.99609V8.60938H44.9336V4.99609H31.3398V13.0039H44.9336C45.4805 13.0039 45.9948 13.1081 46.4766 13.3164C46.9714 13.5247 47.401 13.8112 47.7656 14.1758C48.1302 14.5404 48.4167 14.9701 48.625 15.4648C48.8333 15.9466 48.9375 16.4609 48.9375 17.0078V24.9961C48.9375 25.543 48.8333 26.0638 48.625 26.5586C48.4167 27.0404 48.1302 27.4635 47.7656 27.8281C47.401 28.1927 46.9714 28.4792 46.4766 28.6875C45.9948 28.8958 45.4805 29 44.9336 29H30.9492C30.4023 29 29.8815 28.8958 29.3867 28.6875C28.9049 28.4792 28.4818 28.1927 28.1172 27.8281C27.7526 27.4635 27.4661 27.0404 27.2578 26.5586C27.0495 26.0638 26.9453 25.543 26.9453 24.9961V21.4023H30.9492V24.9961H44.9336V17.0078H31.3398ZM80.168 24.9961C80.168 25.543 80.0638 26.0638 79.8555 26.5586C79.6471 27.0404 79.3607 27.4635 78.9961 27.8281C78.6315 28.1927 78.2018 28.4792 77.707 28.6875C77.2253 28.8958 76.7109 29 76.1641 29H60.168C59.6211 29 59.1003 28.8958 58.6055 28.6875C58.1237 28.4792 57.7005 28.1927 57.3359 27.8281C56.9714 27.4635 56.6849 27.0404 56.4766 26.5586C56.2682 26.0638 56.1641 25.543 56.1641 24.9961V4.99609C56.1641 4.44922 56.2682 3.9349 56.4766 3.45312C56.6849 2.95833 56.9714 2.53516 57.3359 2.18359C57.7005 1.81901 58.1237 1.53255 58.6055 1.32422C59.1003 1.10286 59.6211 0.992188 60.168 0.992188H76.1641C76.7109 0.992188 77.2253 1.10286 77.707 1.32422C78.2018 1.53255 78.6315 1.81901 78.9961 2.18359C79.3607 2.53516 79.6471 2.95833 79.8555 3.45312C80.0638 3.9349 80.168 4.44922 80.168 4.99609V24.9961ZM60.168 4.99609V24.9961H76.1641V4.99609H60.168ZM91.3789 29H87.375V0.992188H91.3789L108.215 22.7109V0.992188H112.219V29H108.215L91.3789 7.28125V29ZM131.398 4.99609C131.398 4.44922 131.503 3.9349 131.711 3.45312C131.919 2.95833 132.206 2.53516 132.57 2.18359C132.935 1.81901 133.358 1.53255 133.84 1.32422C134.335 1.10286 134.855 0.992188 135.402 0.992188H150.598C151.145 0.992188 151.659 1.10286 152.141 1.32422C152.635 1.53255 153.065 1.81901 153.43 2.18359C153.794 2.53516 154.081 2.95833 154.289 3.45312C154.497 3.9349 154.602 4.44922 154.602 4.99609V8.60938H150.598V4.99609H135.402V24.9961H150.598V21.4023H154.602V24.9961C154.602 25.543 154.497 26.0638 154.289 26.5586C154.081 27.0404 153.794 27.4635 153.43 27.8281C153.065 28.1927 152.635 28.4792 152.141 28.6875C151.659 28.8958 151.145 29 150.598 29H135.402C134.855 29 134.335 28.8958 133.84 28.6875C133.358 28.4792 132.935 28.1927 132.57 27.8281C132.206 27.4635 131.919 27.0404 131.711 26.5586C131.503 26.0638 131.398 25.543 131.398 24.9961V4.99609ZM183.137 10.9922C183.137 14.8984 181.47 17.125 178.137 17.6719L183.41 29H178.977L173.781 17.8086H165.012V29H161.008V0.992188H176.34C180.871 0.992188 183.137 3.26432 183.137 7.80859V10.9922ZM165.012 13.8047H176.125C177.193 13.8047 177.961 13.5703 178.43 13.1016C178.898 12.6328 179.133 11.8646 179.133 10.7969V8.00391C179.133 6.9362 178.898 6.16797 178.43 5.69922C177.961 5.23047 177.193 4.99609 176.125 4.99609H165.012V13.8047ZM189.836 0.992188H210.246V4.99609H193.84V13.0039H207.844V17.0078H193.84V24.9961H210.246V29H189.836V0.992188ZM221.848 29L213.84 0.992188H217.844L224.055 23.2773L230.246 0.992188H234.25L240.441 23.2773L246.652 0.992188H250.656L242.648 29H238.254L232.258 8.00391L226.242 29H221.848Z" fill="white"/>
</svg>
