<svg viewBox="0 0 212 12" fill="none" xmlns="http://www.w3.org/2000/svg">
<path d="M10.0773 8.32666C10.0773 8.70752 10.0114 9.06152 9.87959 9.38867C9.74776 9.71582 9.56221 9.99902 9.32295 10.2383C9.08858 10.4775 8.80782 10.6655 8.48067 10.8022C8.15352 10.9341 7.79707 11 7.41133 11H0.431351V9.0957H7.41133C7.64571 9.0957 7.82881 9.02979 7.96065 8.89795C8.09248 8.76123 8.1584 8.5708 8.1584 8.32666V0.49707H10.0773V8.32666ZM23.6277 7.90918C23.6277 8.28516 23.5789 8.62451 23.4813 8.92725C23.3885 9.2251 23.264 9.48877 23.1077 9.71826C22.9515 9.94775 22.7684 10.1431 22.5584 10.3042C22.3484 10.4653 22.1312 10.5972 21.9065 10.6997C21.6819 10.8022 21.4524 10.8779 21.2181 10.9268C20.9886 10.9756 20.7713 11 20.5662 11H13.22V9.0957H20.5662C20.9324 9.0957 21.2156 8.98828 21.4158 8.77344C21.6209 8.55859 21.7234 8.27051 21.7234 7.90918C21.7234 7.7334 21.6966 7.57227 21.6429 7.42578C21.5892 7.2793 21.511 7.15234 21.4085 7.04492C21.3108 6.9375 21.1888 6.85449 21.0423 6.7959C20.9007 6.7373 20.742 6.70801 20.5662 6.70801H16.1863C15.8787 6.70801 15.5467 6.6543 15.1902 6.54688C14.8338 6.43457 14.5018 6.25635 14.1941 6.01221C13.8914 5.76807 13.6375 5.44824 13.4324 5.05273C13.2322 4.65723 13.1321 4.17383 13.1321 3.60254C13.1321 3.03125 13.2322 2.55029 13.4324 2.15967C13.6375 1.76416 13.8914 1.44434 14.1941 1.2002C14.5018 0.951172 14.8338 0.772949 15.1902 0.665527C15.5467 0.553223 15.8787 0.49707 16.1863 0.49707H22.6683V2.40137H16.1863C15.825 2.40137 15.5418 2.51123 15.3367 2.73096C15.1365 2.95068 15.0364 3.24121 15.0364 3.60254C15.0364 3.96875 15.1365 4.25928 15.3367 4.47412C15.5418 4.68408 15.825 4.78906 16.1863 4.78906H20.5662H20.5809C20.7859 4.79395 21.0032 4.82324 21.2327 4.87695C21.4622 4.92578 21.6893 5.00391 21.9139 5.11133C22.1434 5.21875 22.3606 5.35547 22.5657 5.52148C22.7708 5.68262 22.9515 5.87793 23.1077 6.10742C23.2689 6.33691 23.3958 6.60059 23.4886 6.89844C23.5814 7.19629 23.6277 7.5332 23.6277 7.90918ZM37.5077 6.75195C37.5077 7.3916 37.3979 7.97998 37.1781 8.51709C36.9584 9.0542 36.6532 9.51807 36.2626 9.90869C35.872 10.2993 35.4081 10.6045 34.871 10.8242C34.3388 11.0391 33.7577 11.1465 33.1278 11.1465H30.5497C29.9198 11.1465 29.3363 11.0391 28.7992 10.8242C28.2621 10.6045 27.7982 10.2993 27.4076 9.90869C27.017 9.51807 26.7094 9.0542 26.4848 8.51709C26.265 7.97998 26.1552 7.3916 26.1552 6.75195V4.74512C26.1552 4.11035 26.265 3.52441 26.4848 2.9873C26.7094 2.44531 27.017 1.98145 27.4076 1.5957C27.7982 1.20508 28.2621 0.899902 28.7992 0.680176C29.3363 0.460449 29.9198 0.350586 30.5497 0.350586H33.1278C33.7577 0.350586 34.3388 0.460449 34.871 0.680176C35.4081 0.899902 35.872 1.20508 36.2626 1.5957C36.6532 1.98145 36.9584 2.44531 37.1781 2.9873C37.3979 3.52441 37.5077 4.11035 37.5077 4.74512V6.75195ZM35.6034 4.74512C35.6034 4.36914 35.5424 4.02979 35.4203 3.72705C35.3031 3.41943 35.1347 3.1582 34.9149 2.94336C34.7001 2.72363 34.4389 2.55518 34.1313 2.43799C33.8285 2.31592 33.494 2.25488 33.1278 2.25488H30.5497C30.1786 2.25488 29.8393 2.31592 29.5316 2.43799C29.2289 2.55518 28.9677 2.72363 28.748 2.94336C28.5282 3.1582 28.3573 3.41943 28.2353 3.72705C28.1181 4.02979 28.0595 4.36914 28.0595 4.74512V6.75195C28.0595 7.12793 28.1181 7.46973 28.2353 7.77734C28.3573 8.08008 28.5282 8.34131 28.748 8.56104C28.9677 8.77588 29.2289 8.94434 29.5316 9.06641C29.8393 9.18359 30.1786 9.24219 30.5497 9.24219H33.1132C33.4843 9.24219 33.8212 9.18359 34.1239 9.06641C34.4315 8.94434 34.6952 8.77588 34.9149 8.56104C35.1347 8.34131 35.3031 8.08008 35.4203 7.77734C35.5424 7.46973 35.6034 7.12793 35.6034 6.75195V4.74512ZM51.1606 10.187C51.1606 10.3237 51.1338 10.4507 51.0801 10.5679C51.0312 10.6851 50.9629 10.7876 50.875 10.8755C50.792 10.9585 50.6919 11.0244 50.5747 11.0732C50.4575 11.1221 50.333 11.1465 50.2012 11.1465C50.084 11.1465 49.9644 11.1245 49.8423 11.0806C49.7251 11.0366 49.6201 10.9658 49.5273 10.8682L42.5693 3.60254V11H40.665V1.31006C40.665 1.11475 40.7188 0.938965 40.8262 0.782715C40.9385 0.621582 41.0801 0.501953 41.251 0.423828C41.4316 0.350586 41.6172 0.333496 41.8076 0.372559C41.998 0.406738 42.1616 0.494629 42.2983 0.63623L49.2563 7.89453V0.49707H51.1606V10.187ZM70.2121 11H63.342C63.1662 11 62.9758 10.9805 62.7707 10.9414C62.5705 10.8975 62.3703 10.8315 62.1701 10.7437C61.9748 10.6558 61.7868 10.5435 61.6062 10.4067C61.4255 10.2651 61.2644 10.0967 61.1228 9.90137C60.986 9.70117 60.8762 9.47168 60.7932 9.21289C60.7102 8.94922 60.6687 8.65381 60.6687 8.32666V3.17041C60.6687 2.99463 60.6882 2.80664 60.7272 2.60645C60.7712 2.40137 60.8371 2.20117 60.925 2.00586C61.0129 1.80566 61.1276 1.61523 61.2692 1.43457C61.4108 1.25391 61.5793 1.09521 61.7746 0.958496C61.9748 0.816895 62.2043 0.70459 62.4631 0.621582C62.7219 0.538574 63.0148 0.49707 63.342 0.49707H70.2121V2.40137H63.342C63.093 2.40137 62.9025 2.46729 62.7707 2.59912C62.6389 2.73096 62.573 2.92627 62.573 3.18506V8.32666C62.573 8.5708 62.6389 8.76123 62.7707 8.89795C62.9074 9.02979 63.0979 9.0957 63.342 9.0957H70.2121V11ZM82.9349 11H74.2484C74.1116 11 73.9847 10.9756 73.8675 10.9268C73.7503 10.8779 73.6478 10.812 73.5599 10.729C73.4769 10.6411 73.4109 10.5386 73.3621 10.4214C73.3133 10.3042 73.2889 10.1772 73.2889 10.0405V0.49707H75.1932V9.0957H82.9349V11ZM94.2001 6.70801H88.1869V4.78906H94.2001V6.70801ZM95.057 11H88.1869C87.9232 11 87.6352 10.9536 87.3227 10.8608C87.0102 10.7681 86.7196 10.6167 86.4511 10.4067C86.1874 10.1919 85.9652 9.91602 85.7846 9.5791C85.6088 9.2373 85.5209 8.81982 85.5209 8.32666V1.45654C85.5209 1.32471 85.5453 1.2002 85.5941 1.08301C85.643 0.96582 85.7089 0.863281 85.7919 0.775391C85.8798 0.6875 85.9823 0.619141 86.0995 0.570312C86.2167 0.521484 86.3437 0.49707 86.4804 0.49707H95.057V2.40137H87.4252V8.32666C87.4252 8.57568 87.4911 8.76611 87.623 8.89795C87.7548 9.02979 87.9477 9.0957 88.2016 9.0957H95.057V11ZM108.483 11H106.579V8.42188H99.8843V11H97.98V5.74854C97.98 4.98193 98.1118 4.27637 98.3755 3.63184C98.6392 2.9873 99.0054 2.43311 99.4741 1.96924C99.9429 1.50537 100.497 1.14404 101.137 0.885254C101.776 0.626465 102.475 0.49707 103.231 0.49707H107.523C107.655 0.49707 107.78 0.521484 107.897 0.570312C108.014 0.619141 108.117 0.6875 108.205 0.775391C108.292 0.863281 108.361 0.96582 108.41 1.08301C108.458 1.2002 108.483 1.32471 108.483 1.45654V11ZM99.8843 6.51758H106.579V2.40137H103.231C103.173 2.40137 103.048 2.41113 102.858 2.43066C102.672 2.44531 102.455 2.48682 102.206 2.55518C101.962 2.62354 101.703 2.72852 101.43 2.87012C101.156 3.01172 100.905 3.20703 100.675 3.45605C100.446 3.70508 100.255 4.01758 100.104 4.39355C99.9575 4.76465 99.8843 5.21631 99.8843 5.74854V6.51758ZM122.473 10.187C122.473 10.3237 122.446 10.4507 122.392 10.5679C122.343 10.6851 122.275 10.7876 122.187 10.8755C122.104 10.9585 122.004 11.0244 121.887 11.0732C121.77 11.1221 121.645 11.1465 121.513 11.1465C121.396 11.1465 121.276 11.1245 121.154 11.0806C121.037 11.0366 120.932 10.9658 120.839 10.8682L113.881 3.60254V11H111.977V1.31006C111.977 1.11475 112.031 0.938965 112.138 0.782715C112.251 0.621582 112.392 0.501953 112.563 0.423828C112.744 0.350586 112.929 0.333496 113.12 0.372559C113.31 0.406738 113.474 0.494629 113.61 0.63623L120.568 7.89453V0.49707H122.473V10.187ZM136.258 10.0405C136.258 10.1772 136.233 10.3042 136.184 10.4214C136.135 10.5386 136.067 10.6411 135.979 10.729C135.891 10.812 135.789 10.8779 135.672 10.9268C135.554 10.9756 135.43 11 135.298 11H131.006C130.601 11 130.191 10.9561 129.776 10.8682C129.361 10.7803 128.958 10.646 128.567 10.4653C128.181 10.2798 127.818 10.0454 127.476 9.76221C127.134 9.479 126.834 9.14453 126.575 8.75879C126.321 8.36816 126.121 7.92383 125.974 7.42578C125.828 6.92285 125.755 6.36377 125.755 5.74854V0.49707H127.659V5.74854C127.659 6.28564 127.732 6.73975 127.879 7.11084C128.03 7.48193 128.22 7.79199 128.45 8.04102C128.679 8.29004 128.931 8.48535 129.204 8.62695C129.478 8.76855 129.737 8.87354 129.981 8.94189C130.23 9.01025 130.447 9.0542 130.633 9.07373C130.823 9.08838 130.947 9.0957 131.006 9.0957H134.353V0.49707H136.258V10.0405ZM150.218 4.8916C150.218 5.32617 150.164 5.71436 150.057 6.05615C149.95 6.39795 149.803 6.70068 149.617 6.96436C149.437 7.22314 149.227 7.44531 148.988 7.63086C148.748 7.81641 148.497 7.96777 148.233 8.08496C147.974 8.20215 147.711 8.2876 147.442 8.34131C147.179 8.39502 146.929 8.42188 146.695 8.42188H142.388V6.51758H146.695C146.939 6.49805 147.159 6.44922 147.354 6.37109C147.554 6.28809 147.725 6.17822 147.867 6.0415C148.009 5.90479 148.118 5.74121 148.197 5.55078C148.275 5.35547 148.314 5.13574 148.314 4.8916V4.02734C148.289 3.78809 148.238 3.56836 148.16 3.36816C148.082 3.16797 147.974 2.99707 147.838 2.85547C147.706 2.71387 147.545 2.604 147.354 2.52588C147.164 2.44287 146.944 2.40137 146.695 2.40137H142.403C142.149 2.40137 141.956 2.46729 141.825 2.59912C141.693 2.73096 141.627 2.92139 141.627 3.17041V11H139.722V3.17041C139.722 2.68213 139.81 2.26709 139.986 1.92529C140.167 1.5835 140.389 1.30762 140.653 1.09766C140.921 0.887695 141.212 0.736328 141.524 0.643555C141.837 0.545898 142.125 0.49707 142.388 0.49707H146.695C147.125 0.49707 147.511 0.553223 147.852 0.665527C148.194 0.772949 148.494 0.919434 148.753 1.10498C149.017 1.28564 149.239 1.49561 149.42 1.73486C149.605 1.97412 149.757 2.22559 149.874 2.48926C149.996 2.74805 150.084 3.01172 150.137 3.28027C150.191 3.54395 150.218 3.79297 150.218 4.02734V4.8916ZM168.552 11H161.682C161.506 11 161.315 10.9805 161.11 10.9414C160.91 10.8975 160.71 10.8315 160.51 10.7437C160.314 10.6558 160.126 10.5435 159.946 10.4067C159.765 10.2651 159.604 10.0967 159.462 9.90137C159.326 9.70117 159.216 9.47168 159.133 9.21289C159.05 8.94922 159.008 8.65381 159.008 8.32666V3.17041C159.008 2.99463 159.028 2.80664 159.067 2.60645C159.111 2.40137 159.177 2.20117 159.265 2.00586C159.353 1.80566 159.467 1.61523 159.609 1.43457C159.75 1.25391 159.919 1.09521 160.114 0.958496C160.314 0.816895 160.544 0.70459 160.803 0.621582C161.062 0.538574 161.354 0.49707 161.682 0.49707H168.552V2.40137H161.682C161.433 2.40137 161.242 2.46729 161.11 2.59912C160.979 2.73096 160.913 2.92627 160.913 3.18506V8.32666C160.913 8.5708 160.979 8.76123 161.11 8.89795C161.247 9.02979 161.438 9.0957 161.682 9.0957H168.552V11ZM182.124 4.02734C182.124 4.46191 182.07 4.8501 181.963 5.19189C181.856 5.53369 181.709 5.83643 181.524 6.1001C181.343 6.35889 181.133 6.58105 180.894 6.7666C180.654 6.95215 180.403 7.10596 180.139 7.22803C179.88 7.34521 179.617 7.43066 179.348 7.48438C179.085 7.53809 178.836 7.56494 178.601 7.56494L182.578 11H179.634L175.664 7.56494H174.295V5.66064H178.601C178.84 5.64111 179.058 5.59229 179.253 5.51416C179.453 5.43115 179.624 5.32129 179.766 5.18457C179.912 5.04785 180.025 4.88428 180.103 4.69385C180.181 4.49854 180.22 4.27637 180.22 4.02734V2.82617C180.22 2.71875 180.205 2.63818 180.176 2.58447C180.151 2.52588 180.117 2.48438 180.073 2.45996C180.034 2.43066 179.99 2.41357 179.942 2.40869C179.898 2.40381 179.856 2.40137 179.817 2.40137H173.533V11H171.629V1.45654C171.629 1.32471 171.653 1.2002 171.702 1.08301C171.751 0.96582 171.817 0.863281 171.9 0.775391C171.987 0.6875 172.09 0.619141 172.207 0.570312C172.324 0.521484 172.451 0.49707 172.588 0.49707H179.817C180.242 0.49707 180.601 0.575195 180.894 0.731445C181.187 0.882812 181.423 1.07568 181.604 1.31006C181.79 1.53955 181.921 1.78857 182 2.05713C182.083 2.32568 182.124 2.57715 182.124 2.81152V4.02734ZM193.946 6.70801H187.933V4.78906H193.946V6.70801ZM194.803 11H187.933C187.669 11 187.381 10.9536 187.069 10.8608C186.756 10.7681 186.466 10.6167 186.197 10.4067C185.933 10.1919 185.711 9.91602 185.53 9.5791C185.355 9.2373 185.267 8.81982 185.267 8.32666V1.45654C185.267 1.32471 185.291 1.2002 185.34 1.08301C185.389 0.96582 185.455 0.863281 185.538 0.775391C185.626 0.6875 185.728 0.619141 185.845 0.570312C185.963 0.521484 186.09 0.49707 186.226 0.49707H194.803V2.40137H187.171V8.32666C187.171 8.57568 187.237 8.76611 187.369 8.89795C187.501 9.02979 187.694 9.0957 187.947 9.0957H194.803V11ZM211.334 0.49707L209.576 10.3408C209.537 10.5361 209.45 10.7046 209.313 10.8462C209.176 10.9878 209.01 11.0781 208.815 11.1172C208.615 11.1514 208.424 11.1294 208.243 11.0513C208.068 10.9731 207.929 10.8511 207.826 10.6851L204.34 4.95752L200.846 10.6851C200.763 10.8267 200.648 10.9365 200.502 11.0146C200.36 11.0928 200.206 11.1318 200.04 11.1318C199.811 11.1318 199.608 11.0586 199.432 10.9121C199.257 10.7656 199.149 10.5752 199.11 10.3408L197.338 0.49707H199.271L200.531 7.43311L203.534 2.64307C203.617 2.50146 203.729 2.3916 203.871 2.31348C204.017 2.23535 204.174 2.19629 204.34 2.19629C204.506 2.19629 204.659 2.23535 204.801 2.31348C204.943 2.3916 205.06 2.50146 205.153 2.64307L208.141 7.43311L209.401 0.49707H211.334Z" fill="white"/>
</svg>
