<svg width="540" height="529" viewBox="0 0 540 529" fill="none" xmlns="http://www.w3.org/2000/svg">
<circle cx="269.5" cy="264.5" r="264.5" fill="black"/>
<g clip-path="url(#clip0)">
<path d="M223.27 297.696L315.419 298.222L315.182 339.674L223.033 339.147L223.27 297.696Z" fill="#43E97B"/>
<path d="M223.27 297.696L315.419 298.222L315.182 339.674L223.033 339.147L223.27 297.696Z" fill="url(#paint0_linear)"/>
<path d="M306.649 165.798C306.649 165.798 274.554 191.988 273.752 239.365C271.055 239.102 268.309 239.087 265.608 239.318C264.73 195.589 233.554 165.381 233.554 165.381C233.554 165.381 215.139 207.705 227.875 254.638L311.816 255.118C325.146 210.481 306.649 165.798 306.649 165.798Z" fill="#43E97B"/>
<path d="M306.649 165.798C306.649 165.798 274.554 191.988 273.752 239.365C271.055 239.102 268.309 239.087 265.608 239.318C264.73 195.589 233.554 165.381 233.554 165.381C233.554 165.381 215.139 207.705 227.875 254.638L311.816 255.118C325.146 210.481 306.649 165.798 306.649 165.798Z" fill="url(#paint1_linear)"/>
<path d="M184.623 264.766L184.565 274.942L223.399 275.164L223.328 287.52L315.478 288.047L315.548 275.691L354.382 275.913L354.441 265.737L184.623 264.766Z" fill="#43E97B"/>
<path d="M184.623 264.766L184.565 274.942L223.399 275.164L223.328 287.52L315.478 288.047L315.548 275.691L354.382 275.913L354.441 265.737L184.623 264.766Z" fill="url(#paint2_linear)"/>
</g>
<path d="M126.047 322.562C126.047 325.688 126.438 328.227 127.219 330.18C128 332.198 129.107 333.76 130.539 334.867C132.036 336.039 133.827 336.82 135.91 337.211C138.059 337.667 140.435 337.927 143.039 337.992V352.641C138.026 352.576 133.371 351.99 129.074 350.883C124.842 349.841 121.164 348.148 118.039 345.805C114.979 343.526 112.57 340.596 110.812 337.016C109.055 333.435 108.176 329.105 108.176 324.027V291.41C108.176 284.704 106.027 279.952 101.73 277.152C97.4987 274.353 91.3138 272.953 83.1758 272.953V257.816C91.3138 257.816 97.4987 256.417 101.73 253.617C106.027 250.818 108.176 246.065 108.176 239.359V206.84C108.176 201.762 109.055 197.432 110.812 193.852C112.57 190.271 114.979 187.341 118.039 185.062C121.164 182.719 124.842 181.026 129.074 179.984C133.371 178.878 138.026 178.292 143.039 178.227V192.777C140.435 192.842 138.059 193.103 135.91 193.559C133.827 193.949 132.036 194.73 130.539 195.902C129.107 197.009 128 198.572 127.219 200.59C126.438 202.543 126.047 205.082 126.047 208.207V240.629C126.047 247.465 124.094 252.901 120.188 256.938C116.346 260.909 110.682 263.546 103.195 264.848V266.02C110.682 267.322 116.346 269.958 120.188 273.93C124.094 277.901 126.047 283.337 126.047 290.238V322.562ZM413.855 290.238C413.855 283.337 415.776 277.901 419.617 273.93C423.523 269.958 429.22 267.322 436.707 266.02V264.848C429.22 263.546 423.523 260.909 419.617 256.938C415.776 252.901 413.855 247.465 413.855 240.629V208.207C413.855 205.082 413.465 202.543 412.684 200.59C411.902 198.572 410.763 197.009 409.266 195.902C407.833 194.73 406.043 193.949 403.895 193.559C401.811 193.103 399.467 192.842 396.863 192.777V178.227C401.876 178.292 406.499 178.878 410.73 179.984C415.027 181.026 418.706 182.719 421.766 185.062C424.891 187.341 427.332 190.271 429.09 193.852C430.848 197.432 431.727 201.762 431.727 206.84V239.359C431.727 242.745 432.247 245.609 433.289 247.953C434.396 250.297 435.991 252.217 438.074 253.715C440.223 255.147 442.859 256.189 445.984 256.84C449.109 257.491 452.69 257.816 456.727 257.816V272.953C448.589 272.953 442.371 274.353 438.074 277.152C433.842 279.952 431.727 284.704 431.727 291.41V324.027C431.727 329.105 430.848 333.435 429.09 337.016C427.332 340.596 424.891 343.526 421.766 345.805C418.706 348.148 415.027 349.841 410.73 350.883C406.499 351.99 401.876 352.576 396.863 352.641V337.992C399.467 337.927 401.811 337.667 403.895 337.211C406.043 336.82 407.833 336.039 409.266 334.867C410.763 333.76 411.902 332.198 412.684 330.18C413.465 328.227 413.855 325.688 413.855 322.562V290.238Z" fill="#30CFD0"/>
<path d="M126.047 322.562C126.047 325.688 126.438 328.227 127.219 330.18C128 332.198 129.107 333.76 130.539 334.867C132.036 336.039 133.827 336.82 135.91 337.211C138.059 337.667 140.435 337.927 143.039 337.992V352.641C138.026 352.576 133.371 351.99 129.074 350.883C124.842 349.841 121.164 348.148 118.039 345.805C114.979 343.526 112.57 340.596 110.812 337.016C109.055 333.435 108.176 329.105 108.176 324.027V291.41C108.176 284.704 106.027 279.952 101.73 277.152C97.4987 274.353 91.3138 272.953 83.1758 272.953V257.816C91.3138 257.816 97.4987 256.417 101.73 253.617C106.027 250.818 108.176 246.065 108.176 239.359V206.84C108.176 201.762 109.055 197.432 110.812 193.852C112.57 190.271 114.979 187.341 118.039 185.062C121.164 182.719 124.842 181.026 129.074 179.984C133.371 178.878 138.026 178.292 143.039 178.227V192.777C140.435 192.842 138.059 193.103 135.91 193.559C133.827 193.949 132.036 194.73 130.539 195.902C129.107 197.009 128 198.572 127.219 200.59C126.438 202.543 126.047 205.082 126.047 208.207V240.629C126.047 247.465 124.094 252.901 120.188 256.938C116.346 260.909 110.682 263.546 103.195 264.848V266.02C110.682 267.322 116.346 269.958 120.188 273.93C124.094 277.901 126.047 283.337 126.047 290.238V322.562ZM413.855 290.238C413.855 283.337 415.776 277.901 419.617 273.93C423.523 269.958 429.22 267.322 436.707 266.02V264.848C429.22 263.546 423.523 260.909 419.617 256.938C415.776 252.901 413.855 247.465 413.855 240.629V208.207C413.855 205.082 413.465 202.543 412.684 200.59C411.902 198.572 410.763 197.009 409.266 195.902C407.833 194.73 406.043 193.949 403.895 193.559C401.811 193.103 399.467 192.842 396.863 192.777V178.227C401.876 178.292 406.499 178.878 410.73 179.984C415.027 181.026 418.706 182.719 421.766 185.062C424.891 187.341 427.332 190.271 429.09 193.852C430.848 197.432 431.727 201.762 431.727 206.84V239.359C431.727 242.745 432.247 245.609 433.289 247.953C434.396 250.297 435.991 252.217 438.074 253.715C440.223 255.147 442.859 256.189 445.984 256.84C449.109 257.491 452.69 257.816 456.727 257.816V272.953C448.589 272.953 442.371 274.353 438.074 277.152C433.842 279.952 431.727 284.704 431.727 291.41V324.027C431.727 329.105 430.848 333.435 429.09 337.016C427.332 340.596 424.891 343.526 421.766 345.805C418.706 348.148 415.027 349.841 410.73 350.883C406.499 351.99 401.876 352.576 396.863 352.641V337.992C399.467 337.927 401.811 337.667 403.895 337.211C406.043 336.82 407.833 336.039 409.266 334.867C410.763 333.76 411.902 332.198 412.684 330.18C413.465 328.227 413.855 325.688 413.855 322.562V290.238Z" fill="url(#paint3_linear)"/>
<defs>
<linearGradient id="paint0_linear" x1="269.345" y1="297.959" x2="269.108" y2="339.411" gradientUnits="userSpaceOnUse">
<stop stop-color="#30CFD0"/>
<stop offset="1" stop-color="white" stop-opacity="0"/>
</linearGradient>
<linearGradient id="paint1_linear" x1="270.328" y1="165.591" x2="269.818" y2="254.878" gradientUnits="userSpaceOnUse">
<stop stop-color="#30CFD0"/>
<stop offset="1" stop-color="white" stop-opacity="0"/>
</linearGradient>
<linearGradient id="paint2_linear" x1="269.532" y1="265.252" x2="269.403" y2="287.783" gradientUnits="userSpaceOnUse">
<stop stop-color="#30CFD0"/>
<stop offset="1" stop-color="white" stop-opacity="0"/>
</linearGradient>
<linearGradient id="paint3_linear" x1="270" y1="152" x2="270" y2="352" gradientUnits="userSpaceOnUse">
<stop stop-color="#43E97B"/>
<stop offset="1" stop-color="white" stop-opacity="0"/>
</linearGradient>
<clipPath id="clip0">
<rect width="206.219" height="173.824" fill="white" transform="translate(166.994 165) rotate(0.327579)"/>
</clipPath>
</defs>
</svg>
