<svg version="1" xmlns="http://www.w3.org/2000/svg" width="682.667" height="682.667" viewBox="0 0 512.000000 512.000000"><path d="M0 256v256h512V0H0v256zm126-151v16h-3.3c-5.9 0-13.6 2.9-17.9 6.8-7.4 6.7-7.2 5.3-7.8 56.2-.6 43.8-.7 45.8-2.8 52.2-1.3 3.7-4.3 9.7-6.8 13.3l-4.4 6.6 2.9 3.7c1.7 2 4.2 6.2 5.6 9.4 5 10.9 5.5 16 5.5 58.9 0 43 .3 45.6 5.6 52.6 3.2 4.2 10.7 7.8 18.2 8.8l5.2.7V421h-5c-21.1 0-41.9-11.8-49.9-28.3-6.3-12.8-6.4-14.1-7-61.7-.7-47.8-.6-47.5-7-53.4-1.7-1.6-6.1-4-9.8-5.2l-6.8-2.3h4.3c11-.2 28.7-6.7 34.2-12.6l2.2-2.4-2.8-2.5c-6.9-6-20.1-10.8-33.6-12.2l-7.3-.8 5.7-.7c7.7-.9 14-4.7 17.5-10.7l2.8-4.7.6-44c.7-48.2.8-49.4 7.1-61.9 8.3-16.5 28-27.4 51.6-28.5l3.2-.1v16zm281-13.3c18.8 4.8 32.6 17.8 38.6 36.3 1.6 4.8 1.9 11 2.3 50 .6 43.1.7 44.6 2.8 48.5 4 7.5 11.8 12.4 20.1 12.6 2.2.1.4.6-4.8 1.4-14.9 2.2-21 4.5-30.4 11.3l-4.9 3.6 3.4 2.8c7.2 6.1 18.4 10.2 31.9 11.7l6.5.7-5.4 1.2c-9.4 2.1-16 8.5-18 17.2-.6 2.7-1.1 20.5-1.1 43.5 0 30.4-.4 40.5-1.5 46-5.2 24.6-24.4 40.2-51.7 42.2l-8.8.6v-31.1l5.7-.7c9.8-1.2 17.2-5.8 21.1-13 1.5-2.6 1.8-8.7 2.3-47.5.5-37.2.8-45.4 2.2-50.3 1.9-6.6 6.5-15.9 10-20.1l2.4-3-3.4-4.4c-4.4-5.8-6.7-10.4-8.9-17.7-1.5-5.2-1.8-11.8-2.1-50-.2-29.3-.7-45-1.5-47-3-8.1-11.3-14-21.5-15.3l-5.8-.7-.3-14.5c-.1-7.9 0-15 .3-15.8.6-1.7 11.4-.9 20.5 1.5zm-170.7 82c1.4 15.2 12.2 27.3 25.4 28.8 7.2.8 8.7 1.5 9.1 4.8.4 3.1-1.4 4.2-8 5-14.9 2-24.9 13.1-26.7 29.6-.5 4.9-.9 5.6-2.9 5.9-3.7.5-5.2-1.5-5.2-6.9 0-6.3-3.4-15.2-7.6-19.9-4-4.4-11.4-7.9-19.9-9.5-5.1-.9-6.1-1.4-6.3-3.4-.5-3.5 1.3-4.8 8-5.5 10.5-1.2 18.1-6.5 22.7-15.8 2.4-4.7 3.1-7.5 3.1-11.8 0-6.2 1.1-8 5.1-8 2.5 0 2.6.3 3.2 6.7zm76.1 39.5c.3 1.3.7 5.2 1 8.8.7 8.1 3.7 18.8 7.2 25.7 7 13.8 23.7 24.3 42.4 26.8 9.2 1.3 9.1 1.2 8.8 5.3-.3 3.3-.6 3.7-3.3 3.9-8.5.7-17.8 3-24.5 6.2-8.8 4.1-18.9 13.6-23.3 21.8-3.5 6.5-6.4 17.5-7.4 27.9-.7 7.2-1 7.9-3.1 8.2-3.3.5-5.2-1.5-5.2-5.7 0-7.8-3.2-21.7-6.5-28.9-6.9-14.7-22.6-25.8-40-28.2-11.4-1.6-12.9-2.2-13.3-4.8-.5-3.6 1.3-4.9 7.6-5.4 19.7-1.8 37-12.5 44.6-27.6 4.3-8.4 5.3-12.2 6.6-24.7.7-5.5 1.4-10.3 1.6-10.7.3-.5 1.8-.8 3.4-.8 2.3 0 3.1.5 3.4 2.2zM206.8 287c.4 6.3 3.3 15.4 6 19.5 4.9 7 9.6 9.4 25.3 12.9 3.1.7 4.3 3 2.9 5.6-.6 1.2-2.9 2.1-6.9 2.8-7 1.3-15.8 5.2-18.8 8.4-3.8 4-7.3 12.4-8.5 20.2-1 6.5-1.4 7.6-3.2 7.6-3.8 0-5.6-2.9-5.6-9.2 0-14-10.8-25-27-27.4-4.9-.8-6-1.7-6-5.1 0-1.7.7-2.4 2.8-2.9 15.1-3.3 19.1-5.1 23.7-10.6 4.2-5 6.5-11.1 6.5-17.5 0-6.8 1.2-8.5 5.5-8.1 2.6.3 3 .7 3.3 3.8z"/><path d="M229.5 196c-1.5 2.2-5 5.7-7.6 7.7-5.1 3.8-6 5.3-3.4 5.3 1.7 0 11.9 9.6 12.8 12 .4 1.2 1.1.9 2.8-1.4 3.7-4.7 9.2-9.8 11.9-10.8 2.4-.9 2.5-1 .5-2.3-5.8-3.9-10.5-8.4-12-11.3-.9-1.7-1.7-3.2-1.9-3.2-.2 0-1.6 1.8-3.1 4zM305 251.5c-5.9 11.2-17.3 21.4-28.9 26.1l-4.1 1.6 7.9 3.8c10.6 5.2 19.4 13.5 24.6 23.4 2.2 4.2 4.2 7.6 4.5 7.6.3 0 1.8-2.8 3.4-6.2 4-8.7 15.7-20.1 25.5-25l7.3-3.6-6.4-3c-10.7-5.2-24-18.4-27.6-27.5-.8-2-1.8-3.7-2.1-3.7-.3 0-2.2 2.9-4.1 6.5zM201 310.5c-1.6 3.1-9.8 10.8-12.5 11.9-2 .8-2 .8-.1 1.9 3.6 2.2 8.9 7.2 11.6 10.9l2.6 3.6 3.5-4.6c1.9-2.6 5.6-6.2 8.3-7.9l4.8-3.3-2.7-1c-3.2-1.2-12.5-10.6-12.5-12.6 0-2.2-1.5-1.7-3 1.1z"/></svg>